PathFileType	4	(X/Y/Z)	C:\Users\Biomechanik\SynologyDrive\AlexP\Athlete_03\Athlete_3_25_03_31\Walking_09\marker_experimental.trc
DataRate	CameraRate	NumFrames	NumMarkers	Units	OrigDataRate	OrigDataStartFrame	OrigNumFrames
200.000000	200.000000	4	53	mm	200.000000	27	222
Frame#	Time	GLAB			RFHD			LFHD			C7			T6			SPINMOL			SPINM2			SPINM3			T12			BELTOL			BELT2			BELT3			SACROL			SACR2			SACR3			LTHOL			LTH2			LTH3			LSHAOL			LSHA2			LSHA3			LHEE			LTOE			LM5			RTH2			RTH3			RSHAOL			RSHA2			RSHA3			RHEE			RTOE			RM5			STRN			XIPH			LACR			LUAOL			LUA2			LUA3			LLAOL			LLA2			LLA3			LWRR			LWRU			RACR			RUAOL			RUA2			RUA3			RLAOL			RLA2			RLA3			RWRR			RWRU			RTHOL			
		X1	Y1	Z1	X2	Y2	Z2	X3	Y3	Z3	X4	Y4	Z4	X5	Y5	Z5	X6	Y6	Z6	X7	Y7	Z7	X8	Y8	Z8	X9	Y9	Z9	X10	Y10	Z10	X11	Y11	Z11	X12	Y12	Z12	X13	Y13	Z13	X14	Y14	Z14	X15	Y15	Z15	X16	Y16	Z16	X17	Y17	Z17	X18	Y18	Z18	X19	Y19	Z19	X20	Y20	Z20	X21	Y21	Z21	X22	Y22	Z22	X23	Y23	Z23	X24	Y24	Z24	X25	Y25	Z25	X26	Y26	Z26	X27	Y27	Z27	X28	Y28	Z28	X29	Y29	Z29	X30	Y30	Z30	X31	Y31	Z31	X32	Y32	Z32	X33	Y33	Z33	X34	Y34	Z34	X35	Y35	Z35	X36	Y36	Z36	X37	Y37	Z37	X38	Y38	Z38	X39	Y39	Z39	X40	Y40	Z40	X41	Y41	Z41	X42	Y42	Z42	X43	Y43	Z43	X44	Y44	Z44	X45	Y45	Z45	X46	Y46	Z46	X47	Y47	Z47	X48	Y48	Z48	X49	Y49	Z49	X50	Y50	Z50	X51	Y51	Z51	X52	Y52	Z52	X53	Y53	Z53	

28	0.135	-296.3537597656252	1585.076782226562	284.9002990722656	-349.5712280273439	1606.989379882812	348.4664611816406	-339.3934326171877	1607.017700195312	211.2556457519531	-516.2114868164064	1417.393188476562	268.0358276367186	-571.1345825195314	1248.294555664062	258.3016357421874	-579.3947753906251	1208.69287109375	235.8199615478514	-582.8689575195314	1199.728149414062	285.4436950683593	-573.6228637695314	1144.220703125	249.8271484374999	-549.4749755859376	1079.30517578125	250.5543518066405	-580.4409179687501	1046.179077148438	234.221710205078	-578.7323608398439	1043.931030273438	284.6194458007811	-585.5643310546876	984.05810546875	255.6906585693358	-574.2493286132814	932.4298706054688	238.6569061279296	-566.4511108398439	931.6619262695312	289.4645385742186	-582.2476806640625	871.8717041015625	265.3301696777343	-517.5759887695312	657.0390014648438	57.38913345336905	-560.588623046875	604.0713500976562	99.12937927246084	-523.5955810546875	597.6098022460938	67.08109283447256	-646.0684204101562	388.9298706054687	55.07907485961902	-718.7049560546875	382.7863769531249	87.15386962890612	-687.3313598632812	345.8291625976562	70.51622009277331	-833.59716796875	287.3962402343749	185.1196441650389	-813.9307250976562	71.42192077636713	173.037887573242	-859.48974609375	109.5116729736328	85.62438201904281	-326.8717346191407	629.5526123046875	441.1840515136718	-369.1392517089845	609.1793212890625	428.3909912109374	-323.8558349609376	328.9349060058594	425.0481872558593	-281.3926086425782	262.80419921875	418.4597473144531	-330.1723327636719	268.8232116699219	410.4327697753906	-344.9079284667969	56.34124755859373	301.9748840332031	-130.9504852294922	50.72371673583984	305.1632690429688	-182.4346771240235	36.85095214843749	406.7075195312499	-343.9964294433595	1317.497436523438	268.3353271484374	-323.5469665527345	1175.073974609375	260.2132263183593	-434.5014343261719	1386.580200195312	95.19829559326163	-425.0327148437501	1239.755493164062	-10.33024024963387	-431.4189758300782	1178.913940429688	-34.6251754760743	-387.2088012695313	1185.678100585938	-10.56168937683113	-334.9287414550782	992.2439575195312	-59.60006713867194	-337.1459045410157	914.782470703125	-44.57892227172858	-297.4057922363282	944.4124755859375	-52.54478073120123	-225.4664154052735	870.0800170898438	-40.10094451904301	-206.3899383544922	895.9131469726562	32.547492980957	-434.9189758300782	1366.52392578125	437.4749755859374	-472.6730041503908	1216.844116210938	528.5777587890624	-458.4339599609377	1152.9267578125	537.6591186523436	-508.3150634765627	1163.317749023438	545.4923095703124	-509.9529418945314	944.4267578125	577.2852172851561	-468.6904296875002	886.6781616210938	612.9236450195311	-507.6407775878908	881.4822387695312	582.7759399414061	-484.205780029297	796.571533203125	603.7081298828124	-440.9103088378908	774.0254516601562	538.3535156249999	-399.6950073242189	662.161865234375	438.1257324218749	
29	0.14	-289.0975952148439	1586.13916015625	285.6805725097656	-342.2439880371095	1608.041015625	349.2904357910156	-332.1936645507814	1608.10205078125	212.0777282714843	-508.9277648925783	1418.516357421875	268.9439086914061	-563.9747924804689	1249.441650390625	259.1148071289061	-572.2120361328126	1209.835205078125	236.6234436035155	-575.7189941406251	1200.880249023438	286.2480468749999	-566.4762573242189	1145.362915039062	250.6427154541014	-542.3374633789064	1080.388549804688	251.3576660156249	-573.3320922851564	1046.928466796875	234.8015289306639	-571.7546997070314	1044.758911132812	285.2109985351561	-578.5157470703126	984.8390502929688	256.3507690429686	-567.0253906250001	933.0816040039062	239.3313140869139	-559.3627929687501	932.5285034179688	290.1686401367186	-575.1448974609375	872.6422729492188	266.2449951171874	-506.4782409667969	656.791748046875	57.31107711791983	-548.8458251953125	603.067626953125	98.74078369140615	-511.7248840332032	597.2876586914062	66.72554779052724	-632.0869750976562	390.5753173828124	54.29993438720692	-704.61279296875	385.2535400390624	86.76411437988268	-673.7763061523438	347.9470825195312	69.93779754638659	-820.3624877929688	291.9874267578124	185.3193206787108	-803.6807250976562	74.71234893798824	172.8753814697264	-849.1292114257812	114.2151870727538	86.02577209472641	-321.701385498047	629.732666015625	441.5579528808593	-363.9862060546876	609.7634887695312	429.0319213867187	-321.2162780761719	329.1107177734375	425.3485717773437	-279.2618408203126	262.641845703125	418.4625244140624	-328.0687561035157	269.063720703125	410.6754150390624	-344.7582397460938	56.54593276977537	301.7979125976562	-130.6835479736329	50.23148345947265	305.0484313964844	-182.4259490966798	36.97380065917967	406.6367797851562	-336.791229248047	1318.528198242188	269.0117797851562	-316.4595947265626	1176.043823242188	260.9648132324218	-427.4496459960938	1387.604370117188	95.9340057373046	-418.8458862304688	1240.578002929688	-9.571068763732987	-425.6012878417969	1179.763427734375	-33.85136413574227	-381.2816772460938	1186.2998046875	-9.926886558532784	-330.8342285156251	992.1058349609375	-59.1881065368653	-334.0703125000001	914.6919555664062	-44.18610763549811	-293.9431152343751	943.72900390625	-52.45959091186529	-223.0200195312501	868.3276977539062	-40.62206649780278	-203.0515594482422	893.6897583007812	31.91026687622067	-427.2837219238282	1367.564819335938	438.2537536621093	-464.1764221191408	1217.724365234375	529.5738525390624	-449.6148376464845	1153.848876953125	538.4257812499999	-499.4382934570314	1164.0419921875	546.6909179687499	-499.7047424316408	944.930908203125	578.2009277343749	-457.6009826660158	887.3535766601562	613.2595825195311	-496.8300170898439	881.9732666015625	583.4845581054686	-472.5860290527345	797.2396240234375	603.9432373046874	-429.7214355468752	775.2203979492188	538.0841674804686	-394.0173339843751	662.9868774414062	438.9383544921874	
30	0.145	-281.8627929687502	1587.208251953125	286.4203186035156	-334.936981201172	1609.103271484375	350.0717163085937	-325.0093078613283	1609.203002929688	212.8568420410156	-501.6835021972658	1419.669555664062	269.8045654296874	-556.8700561523439	1250.619750976562	259.9078674316405	-565.0850219726564	1211.003051757812	237.4162292480468	-568.6275024414064	1202.06689453125	287.0425415039061	-559.3887329101564	1146.533325195312	251.4590911865233	-535.2549438476564	1081.49365234375	252.1624755859374	-566.2877197265626	1047.696411132812	235.4422149658202	-564.8209228515626	1045.599731445312	285.8614501953124	-571.5221557617189	985.635986328125	257.066192626953	-559.8589477539064	933.7915649414062	240.0480499267577	-552.3278198242189	933.439697265625	290.9129638671874	-568.0906982421875	873.4634399414062	267.1858520507811	-495.4381408691407	656.6876831054688	57.25030517578116	-537.1265869140625	602.2191772460938	98.37290191650381	-499.8761291503907	597.1209716796875	66.41565704345695	-618.01513671875	392.2244567871093	53.57432937622059	-690.445556640625	387.6673583984374	86.34480285644518	-660.0934448242188	350.0399169921874	69.40621185302722	-807.1823120117188	296.2857666015624	185.479766845703	-792.6463012695312	77.97626495361324	172.7930297851561	-837.9038696289062	118.6057434082031	86.35324859619125	-316.7129821777345	629.918701171875	441.9112243652343	-359.0187377929689	610.3541259765625	429.6254272460937	-318.7433166503907	329.2612609863281	425.6204528808593	-277.2709655761719	262.4827575683594	418.4678039550781	-326.0953369140626	269.2811584472656	410.8957824707031	-344.6242370605469	56.7430953979492	301.6199035644531	-130.4580383300782	49.82406997680663	304.9595336914062	-182.4230194091798	37.08898925781249	406.5773315429687	-329.6346130371095	1319.564697265625	269.6299438476562	-309.4388732910157	1177.019653320312	261.6764221191406	-420.4464721679688	1388.635498046875	96.61802673339837	-412.6979675292969	1241.406860351562	-8.843089103698807	-419.8143920898438	1180.615844726562	-33.09960174560555	-375.3898315429688	1186.938598632812	-9.317594528198311	-326.8097839355469	991.9830932617188	-58.81017684936529	-331.0851745605469	914.6346435546875	-43.80861282348639	-290.5778503417969	943.0582885742188	-52.40394210815435	-220.7078704833985	866.5843505859375	-41.18127822875981	-199.8248138427735	891.4677734375	31.21551322937008	-419.6861267089845	1368.625732421875	438.9804077148437	-455.7111206054689	1218.645874023438	530.5429077148436	-440.8140869140627	1154.815551757812	539.1638793945311	-490.5677795410158	1164.806030273438	547.8711547851561	-489.411102294922	945.4785766601562	579.1260986328124	-446.4349365234377	888.0927734375	613.5645141601561	-485.9658508300783	882.5178833007812	584.2003784179686	-460.8797302246095	797.9660034179688	604.1542358398436	-418.4512023925783	776.4878540039062	537.7916870117186	-388.523651123047	663.8226318359375	439.6811218261718	
31	0.15	-274.6468200683595	1588.281982421875	287.1190490722656	-327.647430419922	1610.175537109375	350.8097229003906	-317.8382568359377	1610.317260742188	213.592544555664	-494.4798278808595	1420.848876953125	270.6184082031249	-549.8159790039064	1251.8251953125	260.6812438964843	-558.0095214843751	1212.193237304688	238.1976470947264	-561.5892333984376	1203.283325195312	287.8263549804686	-552.3552856445314	1147.728149414062	252.2735748291014	-528.2229003906251	1082.619262695312	252.9657287597655	-559.3034057617189	1048.49658203125	236.1407623291014	-557.9261474609376	1046.466552734375	286.5679321289061	-564.5802001953126	986.4625244140625	257.8335876464843	-552.7457885742189	934.5614624023438	240.7958374023436	-545.3453369140626	934.3958740234375	291.6869812011718	-561.0775146484375	874.3351440429688	268.138214111328	-484.4615173339844	656.7183227539062	57.2097396850585	-525.4291381835938	601.5157470703125	98.03264617919912	-488.0530090332032	597.1016235351562	66.15196228027335	-603.8728637695312	393.8798217773437	52.91345977783192	-676.2264404296875	390.0271301269531	85.90665435791003	-646.3025512695312	352.1067199707031	68.93019866943348	-794.0689086914062	300.2718505859374	185.5968017578124	-780.8228149414062	81.17429351806636	172.7992401123045	-825.8378295898438	122.631980895996	86.61665344238266	-311.8885803222657	630.1171875	442.2538146972656	-354.2274169921876	610.9537353515625	430.1779174804687	-316.4292602539063	329.3890380859375	425.8643798828124	-275.4125061035157	262.326416015625	418.4757385253906	-324.2459411621094	269.4768981933594	411.0928344726562	-344.5016784667969	56.93702697753904	301.4411621093749	-130.2660369873047	49.4894790649414	304.8932800292969	-182.4234466552735	37.19260025024413	406.5289001464843	-322.5236816406251	1320.6083984375	270.1930541992187	-302.4809875488282	1178.003295898438	262.3512268066406	-413.4912719726563	1389.674194335938	97.25330352783196	-406.5862731933594	1242.242065429688	-8.143923759460524	-414.0558166503907	1181.470336914062	-32.36349487304695	-369.5284423828126	1187.595336914062	-8.730138778686591	-322.8514404296876	991.8806762695312	-58.46427536010748	-328.1854248046876	914.6156616210938	-43.44830322265631	-287.3071289062501	942.4064331054688	-52.37537384033208	-218.5259704589844	864.8580932617188	-41.77711105346684	-196.7086029052735	889.2527465820312	30.4653339385986	-412.1302185058595	1369.7080078125	439.6571044921874	-447.2789306640627	1219.608276367188	531.4845581054686	-432.031707763672	1155.8271484375	539.8724975585936	-481.705535888672	1165.6083984375	549.0308227539061	-479.0723266601564	946.0736083984375	580.0567016601561	-435.1944885253908	888.8997802734375	613.8328857421874	-475.0519409179689	883.1207275390625	584.9207763671874	-449.0936584472658	798.7532348632812	604.3380126953124	-407.1043395996095	777.8276977539062	537.4757080078124	-383.2052001953126	664.6697387695312	440.3601074218749	
